<?xml version="1.0" encoding="UTF-8" standalone="no"?>
<svg
   xmlns:dc="http://purl.org/dc/elements/1.1/"
   xmlns:cc="http://creativecommons.org/ns#"
   xmlns:rdf="http://www.w3.org/1999/02/22-rdf-syntax-ns#"
   xmlns:svg="http://www.w3.org/2000/svg"
   xmlns="http://www.w3.org/2000/svg"
   height="64"
   width="64"
   xml:space="preserve"
   viewBox="0 0 64 64"
   y="0px"
   x="0px"
   id="Warstwa_1"
   version="1.1"><metadata
   id="metadata294"><rdf:RDF><cc:Work
       rdf:about=""><dc:format>image/svg+xml</dc:format><dc:type
         rdf:resource="http://purl.org/dc/dcmitype/StillImage" /><dc:title></dc:title></cc:Work></rdf:RDF></metadata><defs
   id="defs292" />
<style
   id="style2"
   type="text/css">
	.st0{display:none;}
	.st1{display:inline;}
	.st2{fill:#989E5E;stroke:#656565;stroke-width:1.5;stroke-linecap:round;stroke-linejoin:round;stroke-miterlimit:10;}
	.st3{fill:none;stroke:#656565;stroke-width:1.5;stroke-linecap:round;stroke-linejoin:round;stroke-miterlimit:10;}
	.st4{fill:#656565;}
	.st5{fill:#FFFFFF;stroke:#656565;stroke-width:1.5;stroke-linecap:round;stroke-linejoin:round;stroke-miterlimit:10;}
</style>

<path
   id="path285"
   d="m 6.8590117,40.186243 c -0.184477,0.468948 -1.883825,1.6531 -0.556101,1.789195 1.684265,0.802441 0.195335,-2.206551 2.030977,-1.384208 0.05981,1.909605 1.7219723,2.270949 3.5179433,2.801661 0.469125,0.833702 0.685379,9.67e-4 0.809973,1.024555 0.838373,-0.847879 2.706738,-0.559684 2.151869,0.991311 -2.168889,0.56502 0.385429,2.175803 0.797884,3.167357 0.600609,2.102492 1.949564,-0.268057 2.973931,-0.145069 -0.93917,-0.99841 -1.231593,-3.193775 0.531923,-1.668303 1.559244,0.976549 1.388819,1.87515 3.239892,1.450698 1.432848,-1.087651 0.664674,1.737825 -0.435209,1.160558 0.721618,0.665223 2.472517,2.746457 2.765771,1.058234 0.540723,-0.01385 1.445395,1.401998 2.375617,1.125925 1.355375,0.256 0.811719,2.418643 2.353886,2.893285 0.176035,1.106629 0.964414,1.677072 1.353985,2.248582 1.209894,-0.02639 1.615751,-1.961071 2.877218,-2.127691 -0.0125,1.939231 2.176528,1.435802 2.079334,3.14318 -1.182534,1.120142 2.050262,-0.01913 1.692481,0.604457 0.322016,-1.689282 1.578512,-1.125006 2.12769,-2.12769 0.981623,0.627502 1.908829,-0.02406 2.683792,0.84624 1.270579,0.739037 0.828627,-1.83022 2.079334,-0.942954 0.631083,-0.485495 1.946658,0.480701 2.828861,-0.169248 1.270877,0.599269 2.159021,1.951835 3.602567,2.272761 0.522972,0.672526 2.525127,0.939095 3.530033,1.378163 0.803324,-0.755197 -1.512914,-2.071977 -0.749528,-3.55421 -1.111708,-2.426762 2.089625,-4.540985 3.040799,-6.701924 1.254073,-1.30218 2.078389,-3.488024 4.016243,-3.468075 1.064999,-1.635046 -0.281329,-3.58106 0.12206,-4.486697 -0.781119,-1.641598 -2.296327,-3.051029 -2.706116,-4.49252 -0.221398,-1.536741 -1.035537,-3.201171 -0.556101,-4.545521 0.158782,-1.077547 0.567395,-2.399179 -0.76342,-2.777323 -0.583016,-0.811126 -2.704229,-0.15196 -1.36427,-2.034159 0.590738,-2.403632 4.73562,-2.206761 3.384962,-5.367583 0.0271,-2.40886 -1.300585,-4.188968 -2.156165,-6.433648 C 55.622919,13.722489 55.749048,12.037356 55.215616,10.18097 54.594321,9.2862423 53.109053,9.5307526 52.725251,8.5852021 51.055353,8.1207031 49.056893,9.3282787 47.096997,9.1685036 43.856981,9.6219822 40.590338,9.0619329 37.347851,8.89952 35.408142,7.9834549 33.899737,8.7607269 32.705617,10.301862 32.719012,9.6746837 31.175123,8.8711951 29.846533,9.2017488 27.990381,8.8810889 28.352548,6.4293486 27.434747,5.2563866 c 0.566802,0.01823 3.785357,2.5160232 1.450541,0.4343318 C 27.800052,4.8014356 26.553651,4.0788743 25.089452,4.5957822 22.43,4.7939065 20.292617,6.3559578 17.869206,7.072547 c -1.957733,0.5755839 -2.805219,3.291429 -5.37665,2.987531 -2.333878,0.400516 -4.4655843,1.345262 -6.6732113,1.837551 -0.548709,1.088592 -2.669722,-0.171883 -1.136381,1.474877 0.01169,-1.077929 2.745018,0.07602 1.136381,0.967132 1.093723,2.183683 -1.068648,-0.443459 -1.378164,0.04836 -0.723268,1.219331 1.130409,3.28211 0.217605,4.497164 0.395749,1.780338 -2.897803,2.860439 -1.137136,4.029465 1.298906,1.166383 2.744947,2.469446 1.451454,4.02191 0.436304,1.701562 2.001882,3.703579 0.02418,5.391761 0.820697,1.001323 0.73985,2.113974 0.749528,2.925575 1.801514,0.769634 1.487278,2.894682 1.068902,4.45608 0.01443,0.158765 0.02887,0.317529 0.0433,0.476293 z"
   style="fill:#03276f;fill-opacity:0.94117647;stroke:none;stroke-width:0.36267453;stroke-linecap:round;stroke-linejoin:round;stroke-miterlimit:10" />
</svg>